<?xml version="1.0" encoding="utf-8"?>
<svg width="525" height="320" viewBox="0 0 525 320" fill="none" xmlns="http://www.w3.org/2000/svg">
	<path d="M226.5 306.5C251.613 306.5 275.296 300.281 296.071 289.293C317.286 300.902 341.634 307.5 367.5 307.5C449.79 307.5 516.5 240.791 516.5 158.5C516.5 76.2094 449.79 9.5 367.5 9.5C342.387 9.5 318.704 15.7195 297.929 26.7072C276.714 15.098 252.366 8.5 226.5 8.5C172.057 8.5 117.123 38.0666 106.246 96.9611C49.9524 94.9618 8.5 136.473 8.5 188.5C8.5 246.49 55.5101 293.5 113.5 293.5C126.94 293.5 139.808 290.971 151.64 286.356C173.643 299.165 199.226 306.5 226.5 306.5Z" fill="#2B3E50" stroke="white" stroke-width="17"/>
	<path fill-rule="evenodd" clip-rule="evenodd" d="M291.851 159.5C291.851 205.616 256.012 243 211.802 243C167.592 243 131.752 205.616 131.752 159.5C131.752 113.384 167.592 76 211.802 76C215.305 76 218.755 76.2347 222.139 76.6899H351.198C351.198 76.6899 398.814 82.2105 398.814 128.446C398.814 162.26 378.111 170.541 378.111 170.541L431.248 240.929H381.562L303.583 134.657H351.198C351.198 134.657 356.719 131.896 356.719 127.066C356.719 122.235 351.198 120.165 351.198 120.165H282.431C288.442 131.886 291.851 145.278 291.851 159.5ZM253.207 159.5C253.207 183.511 234.669 202.975 211.802 202.975C188.934 202.975 170.397 183.511 170.397 159.5C170.397 135.489 188.934 116.025 211.802 116.025C234.669 116.025 253.207 135.489 253.207 159.5Z" fill="white"/>
	<mask id="path-3-outside-1" maskUnits="userSpaceOnUse" x="27.3032" y="266.198" width="469" height="54" fill="black">
		<rect fill="white" x="27.3032" y="266.198" width="469" height="54"/>
		<path d="M33.3032 298.305C33.3032 293.796 34.8247 290.085 37.8677 287.172C40.9106 284.24 45.0205 282.774 50.1973 282.774C56.1162 282.774 60.5879 284.491 63.6123 287.923C66.043 290.688 67.2583 294.093 67.2583 298.138C67.2583 302.684 65.7461 306.413 62.7217 309.326C59.7158 312.221 55.5503 313.668 50.2251 313.668C45.4751 313.668 41.6343 312.462 38.7026 310.05C35.103 307.062 33.3032 303.147 33.3032 298.305ZM44.6587 298.277C44.6587 300.912 45.1875 302.86 46.2451 304.122C47.3213 305.383 48.6665 306.014 50.2808 306.014C51.9136 306.014 53.2495 305.393 54.2886 304.149C55.3462 302.906 55.875 300.912 55.875 298.166C55.875 295.605 55.3462 293.703 54.2886 292.46C53.231 291.198 51.9229 290.567 50.3643 290.567C48.7129 290.567 47.3491 291.208 46.2729 292.488C45.1968 293.75 44.6587 295.679 44.6587 298.277Z"/>
		<path d="M72.7969 283.442H83.373V287.756C84.8945 285.957 86.4253 284.676 87.9653 283.916C89.5239 283.155 91.3979 282.774 93.5874 282.774C95.9438 282.774 97.8086 283.192 99.1816 284.027C100.555 284.862 101.677 286.105 102.549 287.756C104.331 285.827 105.954 284.519 107.42 283.832C108.886 283.127 110.695 282.774 112.847 282.774C116.02 282.774 118.497 283.721 120.278 285.613C122.06 287.487 122.95 290.428 122.95 294.436V313H111.595V296.162C111.595 294.826 111.335 293.833 110.815 293.184C110.055 292.163 109.108 291.653 107.977 291.653C106.641 291.653 105.564 292.135 104.748 293.1C103.932 294.065 103.523 295.614 103.523 297.748V313H92.168V296.718C92.168 295.419 92.0938 294.538 91.9453 294.074C91.7041 293.332 91.2866 292.738 90.6929 292.293C90.0991 291.829 89.4033 291.597 88.6055 291.597C87.3066 291.597 86.2397 292.089 85.4048 293.072C84.5698 294.056 84.1523 295.67 84.1523 297.915V313H72.7969V283.442Z"/>
		<path d="M129.713 283.442H140.262V288.257C141.839 286.291 143.435 284.89 145.049 284.055C146.663 283.201 148.63 282.774 150.949 282.774C154.085 282.774 156.534 283.711 158.297 285.585C160.078 287.441 160.969 290.317 160.969 294.213V313H149.585V296.746C149.585 294.891 149.242 293.583 148.556 292.822C147.869 292.042 146.904 291.653 145.661 291.653C144.288 291.653 143.175 292.172 142.321 293.211C141.468 294.25 141.041 296.115 141.041 298.806V313H129.713V283.442Z"/>
		<path d="M168.149 272.198H179.477V279.908H168.149V272.198ZM168.149 283.442H179.477V313H168.149V283.442Z"/>
		<path d="M186.825 283.442H197.429V288.285C198.449 286.188 199.498 284.75 200.574 283.971C201.668 283.173 203.014 282.774 204.609 282.774C206.279 282.774 208.107 283.294 210.092 284.333L206.585 292.404C205.25 291.848 204.192 291.569 203.413 291.569C201.928 291.569 200.778 292.182 199.961 293.406C198.792 295.132 198.208 298.36 198.208 303.092V313H186.825V283.442Z"/>
		<path d="M243.185 313H232.608V308.213C231.031 310.18 229.436 311.581 227.821 312.416C226.226 313.25 224.259 313.668 221.921 313.668C218.804 313.668 216.354 312.74 214.573 310.885C212.811 309.011 211.929 306.135 211.929 302.257V283.442H223.312V299.696C223.312 301.552 223.656 302.869 224.342 303.648C225.029 304.428 225.994 304.817 227.237 304.817C228.591 304.817 229.695 304.298 230.549 303.259C231.421 302.22 231.857 300.355 231.857 297.665V283.442H243.185V313Z"/>
		<path d="M250.449 272.198H261.804V313H250.449V272.198Z"/>
		<path d="M301.854 301.032H279.144C279.348 302.851 279.839 304.205 280.619 305.096C281.713 306.376 283.142 307.016 284.905 307.016C286.018 307.016 287.076 306.738 288.078 306.181C288.69 305.829 289.349 305.207 290.054 304.316L301.214 305.346C299.507 308.315 297.448 310.449 295.036 311.748C292.624 313.028 289.163 313.668 284.654 313.668C280.739 313.668 277.659 313.121 275.414 312.026C273.169 310.913 271.304 309.159 269.82 306.766C268.354 304.354 267.621 301.524 267.621 298.277C267.621 293.657 269.096 289.918 272.046 287.061C275.015 284.203 279.106 282.774 284.32 282.774C288.551 282.774 291.891 283.415 294.34 284.695C296.789 285.975 298.654 287.831 299.934 290.261C301.214 292.692 301.854 295.855 301.854 299.752V301.032ZM290.332 295.605C290.109 293.416 289.516 291.848 288.551 290.901C287.604 289.955 286.352 289.482 284.793 289.482C282.994 289.482 281.556 290.196 280.479 291.625C279.793 292.516 279.357 293.842 279.171 295.605H290.332Z"/>
		<path d="M348.139 301.45L358.91 302.674C358.316 304.919 357.342 306.868 355.988 308.519C354.633 310.152 352.898 311.423 350.783 312.332C348.687 313.241 346.015 313.696 342.768 313.696C339.632 313.696 337.016 313.408 334.919 312.833C332.841 312.239 331.05 311.293 329.547 309.994C328.044 308.677 326.866 307.137 326.013 305.374C325.159 303.611 324.732 301.273 324.732 298.36C324.732 295.317 325.252 292.785 326.291 290.762C327.052 289.278 328.091 287.951 329.408 286.782C330.726 285.595 332.08 284.713 333.472 284.138C335.68 283.229 338.509 282.774 341.96 282.774C346.785 282.774 350.458 283.637 352.982 285.363C355.524 287.088 357.305 289.612 358.326 292.933L347.666 294.353C347.332 293.091 346.72 292.145 345.829 291.514C344.957 290.864 343.779 290.54 342.294 290.54C340.42 290.54 338.899 291.217 337.73 292.571C336.58 293.907 336.004 295.939 336.004 298.667C336.004 301.097 336.58 302.943 337.73 304.205C338.88 305.467 340.346 306.098 342.127 306.098C343.612 306.098 344.855 305.717 345.857 304.957C346.877 304.196 347.638 303.027 348.139 301.45Z"/>
		<path d="M364.504 272.198H375.86V313H364.504V272.198Z"/>
		<path d="M381.705 298.305C381.705 293.796 383.226 290.085 386.269 287.172C389.312 284.24 393.422 282.774 398.599 282.774C404.518 282.774 408.989 284.491 412.014 287.923C414.444 290.688 415.66 294.093 415.66 298.138C415.66 302.684 414.147 306.413 411.123 309.326C408.117 312.221 403.952 313.668 398.626 313.668C393.876 313.668 390.036 312.462 387.104 310.05C383.504 307.062 381.705 303.147 381.705 298.305ZM393.06 298.277C393.06 300.912 393.589 302.86 394.646 304.122C395.723 305.383 397.068 306.014 398.682 306.014C400.315 306.014 401.651 305.393 402.69 304.149C403.748 302.906 404.276 300.912 404.276 298.166C404.276 295.605 403.748 293.703 402.69 292.46C401.632 291.198 400.324 290.567 398.766 290.567C397.114 290.567 395.75 291.208 394.674 292.488C393.598 293.75 393.06 295.679 393.06 298.277Z"/>
		<path d="M452.259 313H441.683V308.213C440.105 310.18 438.51 311.581 436.896 312.416C435.3 313.25 433.333 313.668 430.995 313.668C427.878 313.668 425.429 312.74 423.647 310.885C421.885 309.011 421.003 306.135 421.003 302.257V283.442H432.387V299.696C432.387 301.552 432.73 302.869 433.417 303.648C434.103 304.428 435.068 304.817 436.311 304.817C437.666 304.817 438.77 304.298 439.623 303.259C440.495 302.22 440.931 300.355 440.931 297.665V283.442H452.259V313Z"/>
		<path d="M490.25 272.198V313H479.646V308.63C478.161 310.486 476.807 311.738 475.582 312.388C473.949 313.241 472.131 313.668 470.127 313.668C466.101 313.668 463.021 312.137 460.887 309.076C458.771 306.014 457.714 302.294 457.714 297.915C457.714 293.017 458.883 289.269 461.221 286.671C463.577 284.073 466.564 282.774 470.183 282.774C471.945 282.774 473.541 283.071 474.97 283.665C476.417 284.259 477.697 285.149 478.811 286.337V272.198H490.25ZM478.894 298.138C478.894 295.818 478.402 294.093 477.419 292.961C476.436 291.811 475.192 291.235 473.689 291.235C472.372 291.235 471.268 291.783 470.377 292.877C469.487 293.972 469.042 295.809 469.042 298.388C469.042 300.8 469.496 302.572 470.405 303.704C471.333 304.817 472.474 305.374 473.829 305.374C475.276 305.374 476.482 304.808 477.447 303.676C478.412 302.544 478.894 300.698 478.894 298.138Z"/>
	</mask>
	<path d="M33.3032 298.305C33.3032 293.796 34.8247 290.085 37.8677 287.172C40.9106 284.24 45.0205 282.774 50.1973 282.774C56.1162 282.774 60.5879 284.491 63.6123 287.923C66.043 290.688 67.2583 294.093 67.2583 298.138C67.2583 302.684 65.7461 306.413 62.7217 309.326C59.7158 312.221 55.5503 313.668 50.2251 313.668C45.4751 313.668 41.6343 312.462 38.7026 310.05C35.103 307.062 33.3032 303.147 33.3032 298.305ZM44.6587 298.277C44.6587 300.912 45.1875 302.86 46.2451 304.122C47.3213 305.383 48.6665 306.014 50.2808 306.014C51.9136 306.014 53.2495 305.393 54.2886 304.149C55.3462 302.906 55.875 300.912 55.875 298.166C55.875 295.605 55.3462 293.703 54.2886 292.46C53.231 291.198 51.9229 290.567 50.3643 290.567C48.7129 290.567 47.3491 291.208 46.2729 292.488C45.1968 293.75 44.6587 295.679 44.6587 298.277Z" fill="#2B3E50"/>
	<path d="M72.7969 283.442H83.373V287.756C84.8945 285.957 86.4253 284.676 87.9653 283.916C89.5239 283.155 91.3979 282.774 93.5874 282.774C95.9438 282.774 97.8086 283.192 99.1816 284.027C100.555 284.862 101.677 286.105 102.549 287.756C104.331 285.827 105.954 284.519 107.42 283.832C108.886 283.127 110.695 282.774 112.847 282.774C116.02 282.774 118.497 283.721 120.278 285.613C122.06 287.487 122.95 290.428 122.95 294.436V313H111.595V296.162C111.595 294.826 111.335 293.833 110.815 293.184C110.055 292.163 109.108 291.653 107.977 291.653C106.641 291.653 105.564 292.135 104.748 293.1C103.932 294.065 103.523 295.614 103.523 297.748V313H92.168V296.718C92.168 295.419 92.0938 294.538 91.9453 294.074C91.7041 293.332 91.2866 292.738 90.6929 292.293C90.0991 291.829 89.4033 291.597 88.6055 291.597C87.3066 291.597 86.2397 292.089 85.4048 293.072C84.5698 294.056 84.1523 295.67 84.1523 297.915V313H72.7969V283.442Z" fill="#2B3E50"/>
	<path d="M129.713 283.442H140.262V288.257C141.839 286.291 143.435 284.89 145.049 284.055C146.663 283.201 148.63 282.774 150.949 282.774C154.085 282.774 156.534 283.711 158.297 285.585C160.078 287.441 160.969 290.317 160.969 294.213V313H149.585V296.746C149.585 294.891 149.242 293.583 148.556 292.822C147.869 292.042 146.904 291.653 145.661 291.653C144.288 291.653 143.175 292.172 142.321 293.211C141.468 294.25 141.041 296.115 141.041 298.806V313H129.713V283.442Z" fill="#2B3E50"/>
	<path d="M168.149 272.198H179.477V279.908H168.149V272.198ZM168.149 283.442H179.477V313H168.149V283.442Z" fill="#2B3E50"/>
	<path d="M186.825 283.442H197.429V288.285C198.449 286.188 199.498 284.75 200.574 283.971C201.668 283.173 203.014 282.774 204.609 282.774C206.279 282.774 208.107 283.294 210.092 284.333L206.585 292.404C205.25 291.848 204.192 291.569 203.413 291.569C201.928 291.569 200.778 292.182 199.961 293.406C198.792 295.132 198.208 298.36 198.208 303.092V313H186.825V283.442Z" fill="#2B3E50"/>
	<path d="M243.185 313H232.608V308.213C231.031 310.18 229.436 311.581 227.821 312.416C226.226 313.25 224.259 313.668 221.921 313.668C218.804 313.668 216.354 312.74 214.573 310.885C212.811 309.011 211.929 306.135 211.929 302.257V283.442H223.312V299.696C223.312 301.552 223.656 302.869 224.342 303.648C225.029 304.428 225.994 304.817 227.237 304.817C228.591 304.817 229.695 304.298 230.549 303.259C231.421 302.22 231.857 300.355 231.857 297.665V283.442H243.185V313Z" fill="#2B3E50"/>
	<path d="M250.449 272.198H261.804V313H250.449V272.198Z" fill="#2B3E50"/>
	<path d="M301.854 301.032H279.144C279.348 302.851 279.839 304.205 280.619 305.096C281.713 306.376 283.142 307.016 284.905 307.016C286.018 307.016 287.076 306.738 288.078 306.181C288.69 305.829 289.349 305.207 290.054 304.316L301.214 305.346C299.507 308.315 297.448 310.449 295.036 311.748C292.624 313.028 289.163 313.668 284.654 313.668C280.739 313.668 277.659 313.121 275.414 312.026C273.169 310.913 271.304 309.159 269.82 306.766C268.354 304.354 267.621 301.524 267.621 298.277C267.621 293.657 269.096 289.918 272.046 287.061C275.015 284.203 279.106 282.774 284.32 282.774C288.551 282.774 291.891 283.415 294.34 284.695C296.789 285.975 298.654 287.831 299.934 290.261C301.214 292.692 301.854 295.855 301.854 299.752V301.032ZM290.332 295.605C290.109 293.416 289.516 291.848 288.551 290.901C287.604 289.955 286.352 289.482 284.793 289.482C282.994 289.482 281.556 290.196 280.479 291.625C279.793 292.516 279.357 293.842 279.171 295.605H290.332Z" fill="#2B3E50"/>
	<path d="M348.139 301.45L358.91 302.674C358.316 304.919 357.342 306.868 355.988 308.519C354.633 310.152 352.898 311.423 350.783 312.332C348.687 313.241 346.015 313.696 342.768 313.696C339.632 313.696 337.016 313.408 334.919 312.833C332.841 312.239 331.05 311.293 329.547 309.994C328.044 308.677 326.866 307.137 326.013 305.374C325.159 303.611 324.732 301.273 324.732 298.36C324.732 295.317 325.252 292.785 326.291 290.762C327.052 289.278 328.091 287.951 329.408 286.782C330.726 285.595 332.08 284.713 333.472 284.138C335.68 283.229 338.509 282.774 341.96 282.774C346.785 282.774 350.458 283.637 352.982 285.363C355.524 287.088 357.305 289.612 358.326 292.933L347.666 294.353C347.332 293.091 346.72 292.145 345.829 291.514C344.957 290.864 343.779 290.54 342.294 290.54C340.42 290.54 338.899 291.217 337.73 292.571C336.58 293.907 336.004 295.939 336.004 298.667C336.004 301.097 336.58 302.943 337.73 304.205C338.88 305.467 340.346 306.098 342.127 306.098C343.612 306.098 344.855 305.717 345.857 304.957C346.877 304.196 347.638 303.027 348.139 301.45Z" fill="#2B3E50"/>
	<path d="M364.504 272.198H375.86V313H364.504V272.198Z" fill="#2B3E50"/>
	<path d="M381.705 298.305C381.705 293.796 383.226 290.085 386.269 287.172C389.312 284.24 393.422 282.774 398.599 282.774C404.518 282.774 408.989 284.491 412.014 287.923C414.444 290.688 415.66 294.093 415.66 298.138C415.66 302.684 414.147 306.413 411.123 309.326C408.117 312.221 403.952 313.668 398.626 313.668C393.876 313.668 390.036 312.462 387.104 310.05C383.504 307.062 381.705 303.147 381.705 298.305ZM393.06 298.277C393.06 300.912 393.589 302.86 394.646 304.122C395.723 305.383 397.068 306.014 398.682 306.014C400.315 306.014 401.651 305.393 402.69 304.149C403.748 302.906 404.276 300.912 404.276 298.166C404.276 295.605 403.748 293.703 402.69 292.46C401.632 291.198 400.324 290.567 398.766 290.567C397.114 290.567 395.75 291.208 394.674 292.488C393.598 293.75 393.06 295.679 393.06 298.277Z" fill="#2B3E50"/>
	<path d="M452.259 313H441.683V308.213C440.105 310.18 438.51 311.581 436.896 312.416C435.3 313.25 433.333 313.668 430.995 313.668C427.878 313.668 425.429 312.74 423.647 310.885C421.885 309.011 421.003 306.135 421.003 302.257V283.442H432.387V299.696C432.387 301.552 432.73 302.869 433.417 303.648C434.103 304.428 435.068 304.817 436.311 304.817C437.666 304.817 438.77 304.298 439.623 303.259C440.495 302.22 440.931 300.355 440.931 297.665V283.442H452.259V313Z" fill="#2B3E50"/>
	<path d="M490.25 272.198V313H479.646V308.63C478.161 310.486 476.807 311.738 475.582 312.388C473.949 313.241 472.131 313.668 470.127 313.668C466.101 313.668 463.021 312.137 460.887 309.076C458.771 306.014 457.714 302.294 457.714 297.915C457.714 293.017 458.883 289.269 461.221 286.671C463.577 284.073 466.564 282.774 470.183 282.774C471.945 282.774 473.541 283.071 474.97 283.665C476.417 284.259 477.697 285.149 478.811 286.337V272.198H490.25ZM478.894 298.138C478.894 295.818 478.402 294.093 477.419 292.961C476.436 291.811 475.192 291.235 473.689 291.235C472.372 291.235 471.268 291.783 470.377 292.877C469.487 293.972 469.042 295.809 469.042 298.388C469.042 300.8 469.496 302.572 470.405 303.704C471.333 304.817 472.474 305.374 473.829 305.374C475.276 305.374 476.482 304.808 477.447 303.676C478.412 302.544 478.894 300.698 478.894 298.138Z" fill="#2B3E50"/>
	<path d="M33.3032 298.305C33.3032 293.796 34.8247 290.085 37.8677 287.172C40.9106 284.24 45.0205 282.774 50.1973 282.774C56.1162 282.774 60.5879 284.491 63.6123 287.923C66.043 290.688 67.2583 294.093 67.2583 298.138C67.2583 302.684 65.7461 306.413 62.7217 309.326C59.7158 312.221 55.5503 313.668 50.2251 313.668C45.4751 313.668 41.6343 312.462 38.7026 310.05C35.103 307.062 33.3032 303.147 33.3032 298.305ZM44.6587 298.277C44.6587 300.912 45.1875 302.86 46.2451 304.122C47.3213 305.383 48.6665 306.014 50.2808 306.014C51.9136 306.014 53.2495 305.393 54.2886 304.149C55.3462 302.906 55.875 300.912 55.875 298.166C55.875 295.605 55.3462 293.703 54.2886 292.46C53.231 291.198 51.9229 290.567 50.3643 290.567C48.7129 290.567 47.3491 291.208 46.2729 292.488C45.1968 293.75 44.6587 295.679 44.6587 298.277Z" stroke="white" stroke-width="12" mask="url(#path-3-outside-1)"/>
	<path d="M72.7969 283.442H83.373V287.756C84.8945 285.957 86.4253 284.676 87.9653 283.916C89.5239 283.155 91.3979 282.774 93.5874 282.774C95.9438 282.774 97.8086 283.192 99.1816 284.027C100.555 284.862 101.677 286.105 102.549 287.756C104.331 285.827 105.954 284.519 107.42 283.832C108.886 283.127 110.695 282.774 112.847 282.774C116.02 282.774 118.497 283.721 120.278 285.613C122.06 287.487 122.95 290.428 122.95 294.436V313H111.595V296.162C111.595 294.826 111.335 293.833 110.815 293.184C110.055 292.163 109.108 291.653 107.977 291.653C106.641 291.653 105.564 292.135 104.748 293.1C103.932 294.065 103.523 295.614 103.523 297.748V313H92.168V296.718C92.168 295.419 92.0938 294.538 91.9453 294.074C91.7041 293.332 91.2866 292.738 90.6929 292.293C90.0991 291.829 89.4033 291.597 88.6055 291.597C87.3066 291.597 86.2397 292.089 85.4048 293.072C84.5698 294.056 84.1523 295.67 84.1523 297.915V313H72.7969V283.442Z" stroke="white" stroke-width="12" mask="url(#path-3-outside-1)"/>
	<path d="M129.713 283.442H140.262V288.257C141.839 286.291 143.435 284.89 145.049 284.055C146.663 283.201 148.63 282.774 150.949 282.774C154.085 282.774 156.534 283.711 158.297 285.585C160.078 287.441 160.969 290.317 160.969 294.213V313H149.585V296.746C149.585 294.891 149.242 293.583 148.556 292.822C147.869 292.042 146.904 291.653 145.661 291.653C144.288 291.653 143.175 292.172 142.321 293.211C141.468 294.25 141.041 296.115 141.041 298.806V313H129.713V283.442Z" stroke="white" stroke-width="12" mask="url(#path-3-outside-1)"/>
	<path d="M168.149 272.198H179.477V279.908H168.149V272.198ZM168.149 283.442H179.477V313H168.149V283.442Z" stroke="white" stroke-width="12" mask="url(#path-3-outside-1)"/>
	<path d="M186.825 283.442H197.429V288.285C198.449 286.188 199.498 284.75 200.574 283.971C201.668 283.173 203.014 282.774 204.609 282.774C206.279 282.774 208.107 283.294 210.092 284.333L206.585 292.404C205.25 291.848 204.192 291.569 203.413 291.569C201.928 291.569 200.778 292.182 199.961 293.406C198.792 295.132 198.208 298.36 198.208 303.092V313H186.825V283.442Z" stroke="white" stroke-width="12" mask="url(#path-3-outside-1)"/>
	<path d="M243.185 313H232.608V308.213C231.031 310.18 229.436 311.581 227.821 312.416C226.226 313.25 224.259 313.668 221.921 313.668C218.804 313.668 216.354 312.74 214.573 310.885C212.811 309.011 211.929 306.135 211.929 302.257V283.442H223.312V299.696C223.312 301.552 223.656 302.869 224.342 303.648C225.029 304.428 225.994 304.817 227.237 304.817C228.591 304.817 229.695 304.298 230.549 303.259C231.421 302.22 231.857 300.355 231.857 297.665V283.442H243.185V313Z" stroke="white" stroke-width="12" mask="url(#path-3-outside-1)"/>
	<path d="M250.449 272.198H261.804V313H250.449V272.198Z" stroke="white" stroke-width="12" mask="url(#path-3-outside-1)"/>
	<path d="M301.854 301.032H279.144C279.348 302.851 279.839 304.205 280.619 305.096C281.713 306.376 283.142 307.016 284.905 307.016C286.018 307.016 287.076 306.738 288.078 306.181C288.69 305.829 289.349 305.207 290.054 304.316L301.214 305.346C299.507 308.315 297.448 310.449 295.036 311.748C292.624 313.028 289.163 313.668 284.654 313.668C280.739 313.668 277.659 313.121 275.414 312.026C273.169 310.913 271.304 309.159 269.82 306.766C268.354 304.354 267.621 301.524 267.621 298.277C267.621 293.657 269.096 289.918 272.046 287.061C275.015 284.203 279.106 282.774 284.32 282.774C288.551 282.774 291.891 283.415 294.34 284.695C296.789 285.975 298.654 287.831 299.934 290.261C301.214 292.692 301.854 295.855 301.854 299.752V301.032ZM290.332 295.605C290.109 293.416 289.516 291.848 288.551 290.901C287.604 289.955 286.352 289.482 284.793 289.482C282.994 289.482 281.556 290.196 280.479 291.625C279.793 292.516 279.357 293.842 279.171 295.605H290.332Z" stroke="white" stroke-width="12" mask="url(#path-3-outside-1)"/>
	<path d="M348.139 301.45L358.91 302.674C358.316 304.919 357.342 306.868 355.988 308.519C354.633 310.152 352.898 311.423 350.783 312.332C348.687 313.241 346.015 313.696 342.768 313.696C339.632 313.696 337.016 313.408 334.919 312.833C332.841 312.239 331.05 311.293 329.547 309.994C328.044 308.677 326.866 307.137 326.013 305.374C325.159 303.611 324.732 301.273 324.732 298.36C324.732 295.317 325.252 292.785 326.291 290.762C327.052 289.278 328.091 287.951 329.408 286.782C330.726 285.595 332.08 284.713 333.472 284.138C335.68 283.229 338.509 282.774 341.96 282.774C346.785 282.774 350.458 283.637 352.982 285.363C355.524 287.088 357.305 289.612 358.326 292.933L347.666 294.353C347.332 293.091 346.72 292.145 345.829 291.514C344.957 290.864 343.779 290.54 342.294 290.54C340.42 290.54 338.899 291.217 337.73 292.571C336.58 293.907 336.004 295.939 336.004 298.667C336.004 301.097 336.58 302.943 337.73 304.205C338.88 305.467 340.346 306.098 342.127 306.098C343.612 306.098 344.855 305.717 345.857 304.957C346.877 304.196 347.638 303.027 348.139 301.45Z" stroke="white" stroke-width="12" mask="url(#path-3-outside-1)"/>
	<path d="M364.504 272.198H375.86V313H364.504V272.198Z" stroke="white" stroke-width="12" mask="url(#path-3-outside-1)"/>
	<path d="M381.705 298.305C381.705 293.796 383.226 290.085 386.269 287.172C389.312 284.24 393.422 282.774 398.599 282.774C404.518 282.774 408.989 284.491 412.014 287.923C414.444 290.688 415.66 294.093 415.66 298.138C415.66 302.684 414.147 306.413 411.123 309.326C408.117 312.221 403.952 313.668 398.626 313.668C393.876 313.668 390.036 312.462 387.104 310.05C383.504 307.062 381.705 303.147 381.705 298.305ZM393.06 298.277C393.06 300.912 393.589 302.86 394.646 304.122C395.723 305.383 397.068 306.014 398.682 306.014C400.315 306.014 401.651 305.393 402.69 304.149C403.748 302.906 404.276 300.912 404.276 298.166C404.276 295.605 403.748 293.703 402.69 292.46C401.632 291.198 400.324 290.567 398.766 290.567C397.114 290.567 395.75 291.208 394.674 292.488C393.598 293.75 393.06 295.679 393.06 298.277Z" stroke="white" stroke-width="12" mask="url(#path-3-outside-1)"/>
	<path d="M452.259 313H441.683V308.213C440.105 310.18 438.51 311.581 436.896 312.416C435.3 313.25 433.333 313.668 430.995 313.668C427.878 313.668 425.429 312.74 423.647 310.885C421.885 309.011 421.003 306.135 421.003 302.257V283.442H432.387V299.696C432.387 301.552 432.73 302.869 433.417 303.648C434.103 304.428 435.068 304.817 436.311 304.817C437.666 304.817 438.77 304.298 439.623 303.259C440.495 302.22 440.931 300.355 440.931 297.665V283.442H452.259V313Z" stroke="white" stroke-width="12" mask="url(#path-3-outside-1)"/>
	<path d="M490.25 272.198V313H479.646V308.63C478.161 310.486 476.807 311.738 475.582 312.388C473.949 313.241 472.131 313.668 470.127 313.668C466.101 313.668 463.021 312.137 460.887 309.076C458.771 306.014 457.714 302.294 457.714 297.915C457.714 293.017 458.883 289.269 461.221 286.671C463.577 284.073 466.564 282.774 470.183 282.774C471.945 282.774 473.541 283.071 474.97 283.665C476.417 284.259 477.697 285.149 478.811 286.337V272.198H490.25ZM478.894 298.138C478.894 295.818 478.402 294.093 477.419 292.961C476.436 291.811 475.192 291.235 473.689 291.235C472.372 291.235 471.268 291.783 470.377 292.877C469.487 293.972 469.042 295.809 469.042 298.388C469.042 300.8 469.496 302.572 470.405 303.704C471.333 304.817 472.474 305.374 473.829 305.374C475.276 305.374 476.482 304.808 477.447 303.676C478.412 302.544 478.894 300.698 478.894 298.138Z" stroke="white" stroke-width="12" mask="url(#path-3-outside-1)"/>
</svg>
